# xmcd
#
# Track frame offsets:
#	150
#	19642
#	35760
#	56432
#	80515
#	105607
#	127502
#	146655
#
# Disc length: 2209 seconds
#
# Revision: 1
# Processed by: cddbd v1.5.2PL0 Copyright (c) Steve Scherf et al.
# Submitted via: MusicWizard 7.2.0
#
DISCID=5e089f08
DTITLE=Brown, Shirley - For The Real Feeling
DYEAR=1999
DGENRE=Rock - Pop
TTITLE0=When, Where And What Time
TTITLE1=Crowding In On My Mind
TTITLE2=After A Night Like This
TTITLE3=Dirty Feelin'
TTITLE4=Hang On Louie
TTITLE5=Eyes Can't See
TTITLE6=Move Me - Move Me
TTITLE7=Love Starved
EXTD=
EXTT0=
EXTT1=
EXTT2=
EXTT3=
EXTT4=
EXTT5=
EXTT6=
EXTT7=
PLAYORDER=
